<?xml version="1.0" encoding="UTF-8"?>
<svg id="Layer_1" xmlns="http://www.w3.org/2000/svg" version="1.1" viewBox="0 0 800 800">
  <!-- Generator: Adobe Illustrator 29.3.1, SVG Export Plug-In . SVG Version: 2.1.0 Build 151)  -->
  <defs>
    <style>
      .st0, .st1 {
        fill: none;
        stroke: #000;
        stroke-miterlimit: 133.3;
        stroke-width: 50px;
      }

      .st1 {
        stroke-linecap: round;
      }
    </style>
  </defs>
  <path class="st0" d="M606,268l15.4-15.4c25.6-25.6,67.1-25.6,92.7,0,25.6,25.6,25.6,67.1,0,92.7l-15.4,15.5M606,268s1.9,32.8,30.9,61.8c29,29,61.8,30.9,61.8,30.9M606,268l-142,142c-9.6,9.6-14.4,14.4-18.6,19.7-4.9,6.3-9.1,13-12.5,20.2-2.9,6.1-5,12.5-9.3,25.4l-13.8,41.3-4.5,13.4M698.7,360.7l-142,142c-9.6,9.6-14.4,14.4-19.7,18.6-6.3,4.9-13,9.1-20.2,12.5-6.1,2.9-12.5,5-25.4,9.3l-41.3,13.8-13.4,4.5M436.6,561.3l-13.4,4.5c-6.4,2.1-13.4.5-18.1-4.3s-6.4-11.7-4.3-18.1l4.5-13.4M436.6,561.3l-31.3-31.3"/>
  <path class="st1" d="M266.7,433.3h83.3"/>
  <path class="st1" d="M266.7,300h216.7"/>
  <path class="st1" d="M266.7,566.7h50"/>
  <path class="st1" d="M100,466.7v-133.3c0-125.7,0-188.6,39.1-227.6,39.1-39.1,101.9-39.1,227.6-39.1h66.7c125.7,0,188.6,0,227.6,39.1M700,466.7c0,125.7,0,188.6-39.1,227.6M139.1,694.3c39.1,39.1,101.9,39.1,227.6,39.1h66.7c125.7,0,188.6,0,227.6-39.1M660.9,694.3c31.4-31.4,37.6-78.3,38.8-160.9"/>
</svg>