<?xml version="1.0" encoding="UTF-8"?>
<svg id="Layer_1" xmlns="http://www.w3.org/2000/svg" xmlns:xlink="http://www.w3.org/1999/xlink" xmlns:x="http://ns.adobe.com/Extensibility/1.0/" xmlns:i="http://ns.adobe.com/AdobeIllustrator/10.0/" xmlns:graph="http://ns.adobe.com/Graphs/1.0/" version="1.1" viewBox="0 0 100 125">
  <!-- Generator: Adobe Illustrator 29.3.1, SVG Export Plug-In . SVG Version: 2.1.0 Build 151)  -->
  <defs>
    <style>
      .st0 {
        font-family: HelveticaNeue-Bold, 'Helvetica Neue';
        font-size: 0px;
        font-weight: 700;
        isolation: isolate;
      }
    </style>
  </defs>
  <g>
    <g>
      <path d="M51.1,57.4c.2,1.7-1.1,3.2-2.9,3.2h-8.4l-4.4-6.1c-1.3-1.7-3.3-2.8-5.5-2.8s-4.1,1-5.4,2.8l-4.4,6.1h-8c-1.7,0-3.1-1.5-2.9-3.2l1-9.7c.7-5.7,4.6-10.3,9.7-12.1h0c2.8,2,6.3,3.3,10.1,3.3s7.3-1.2,10.1-3.3h.2c5.1,1.9,9,6.5,9.7,12.2l1,9.6Z"/>
      <path d="M17.7,21.8c0,6.9,5.6,12.5,12.5,12.5s12.5-5.6,12.5-12.5-5.6-12.5-12.5-12.5c-6.9,0-12.5,5.6-12.5,12.5Z"/>
    </g>
    <g>
      <path d="M80.1,73h0c-2.8,2.1-6.3,3.3-10.1,3.3s-7.3-1.2-10.1-3.3h-.2c-5.1,2-9,6.6-9.7,12.3l-1,9.7c-.2,1.7,1.2,3.2,2.9,3.2h36.1c1.7,0,3-1.5,2.9-3.2l-1-9.6c-.7-5.9-4.5-10.5-9.7-12.4Z"/>
      <path d="M57.3,59.2c0,6.9,5.6,12.5,12.5,12.5s12.5-5.6,12.5-12.5-5.6-12.5-12.5-12.5c-6.9,0-12.5,5.6-12.5,12.5Z"/>
    </g>
    <path d="M39.9,74.2h-4.1c.3,6.4,2.6,12.3,6.4,17,.5.6,0,1.5-.8,1.4-9.4-1.2-16.7-8.9-17.2-18.4h-4.2c-1.7,0-2.7-1.9-1.7-3.3l9.9-13.7c.8-1.1,2.5-1.1,3.3,0l9.9,13.7c1.1,1.4.1,3.3-1.5,3.3Z"/>
    <path d="M69.8,3c-10.4,0-18.8,8.4-18.8,18.8s8.4,18.8,18.8,18.8,18.8-8.4,18.8-18.8S80.2,3,69.8,3ZM78.7,19.1l-9.9,9.9c-.5.5-1.1.7-1.7.7s-1.1-.2-1.5-.7l-4.9-4.9c-.9-.9-.9-2.4,0-3.3s2.4-.9,3.3,0l3.3,3.3,8.2-8.2c.9-.9,2.4-.9,3.3,0,.9.8.9,2.3,0,3.2Z"/>
  </g>
  <text class="st0" transform="translate(52.2 98.4) scale(.3 1)"><tspan x="0" y="0">Created by Adrien Coquet</tspan></text>
  <text class="st0" transform="translate(52.3 98.5) scale(.3 1)"><tspan x="0" y="0">from the Noun Project</tspan></text>
</svg>